# xmcd CD database file
#
# Track frame offsets:
#	150
#	30242
#	52742
#	75332
#	105722
#	139897
#
# Disc length: 2177 seconds
#
# Revision: 2
# Processed by: cddbd v1.5.1PL0 Copyright (c) Steve Scherf et al.
# Submitted via: CDex 1.51
#
DISCID=3a087f06
DTITLE=亜波根綾乃 - affettuoso
DYEAR=1999
DGENRE=JPop
TTITLE0=夜の翼 〜Keep our head together〜
TTITLE1=大きな風
TTITLE2=Seventeen
TTITLE3=るり色の夢 〜forget-me-not〜
TTITLE4=ひこうき雲の空の下
TTITLE5=心の地図
EXTD=YEAR: 1999
EXTT0=
EXTT1=
EXTT2=
EXTT3=
EXTT4=
EXTT5=
PLAYORDER=
